<?xml version="1.0" standalone="no"?>
<!DOCTYPE svg PUBLIC "-//W3C//DTD SVG 20010904//EN"
 "http://www.w3.org/TR/2001/REC-SVG-20010904/DTD/svg10.dtd">
<svg version="1.0" xmlns="http://www.w3.org/2000/svg"
 width="200.000000pt" height="200.000000pt" viewBox="0 0 200.000000 200.000000"
 preserveAspectRatio="xMidYMid meet">

<g transform="translate(0.000000,200.000000) scale(0.100000,-0.100000)"
fill="#000000" stroke="none">
<path d="M1192 1807 c-30 -32 -29 -87 1 -115 22 -21 33 -22 185 -22 89 0 162
-3 162 -8 0 -4 -196 -203 -435 -442 -411 -411 -435 -437 -435 -471 0 -46 33
-79 81 -79 32 0 64 30 469 435 239 239 438 435 442 435 5 0 8 -73 8 -163 0
-158 1 -164 23 -185 32 -30 87 -29 115 1 22 23 22 30 22 306 l0 282 -25 24
-24 25 -284 0 c-283 0 -284 0 -305 -23z"/>
<path d="M315 1561 c-22 -10 -57 -36 -77 -57 -70 -73 -68 -55 -68 -631 0 -582
-2 -560 76 -635 73 -70 55 -68 631 -68 582 0 560 -2 635 76 67 71 68 74 68
453 0 187 -3 347 -6 356 -10 25 -62 47 -94 40 -55 -12 -55 -11 -60 -376 -5
-336 -5 -339 -28 -361 l-23 -23 -494 0 -494 0 -23 23 -23 23 0 494 0 494 23
23 c22 23 25 23 365 28 188 3 343 7 344 8 1 1 10 16 19 33 18 36 13 70 -16 99
-19 19 -35 20 -367 20 -318 0 -351 -2 -388 -19z"/>
</g>
</svg>
